<svg xmlns="http://www.w3.org/2000/svg" fill="none" version="1.1" width="512" height="512" viewBox="7 4 28 32">
  <g>
    <path d="M15.837,16.635 L13.531,19.443 L18.994,23.922 C19.32,24.191,19.728,24.335,20.147,24.335 C20.21,24.335,20.273,24.332,20.335,24.326 C20.819,24.275,21.261,24.033,21.565,23.654 L31.364,11.419 L28.527,9.148 L19.879,19.947 L15.837,16.635Z" fill="#FFB000" fill-rule="evenodd"/>
    <path d="M20,30.717 C14.091,30.717,9.283,25.909,9.283,20 C9.283,14.091,14.091,9.283,20,9.283 L20,6.172 C12.375,6.172,6.172,12.375,6.172,20 C6.172,27.625,12.375,33.828,20,33.828 C27.625,33.828,33.828,27.625,33.828,20 L30.717,20 C30.717,25.909,25.909,30.717,20,30.717Z" fill="#4772FA" fill-rule="evenodd"/>
  </g>
</svg>
