<svg xmlns="http://www.w3.org/2000/svg" viewBox="0 0 1280 640" fill="none">
  <defs>
    <linearGradient id="bg" x1="0" y1="0" x2="1280" y2="640" gradientUnits="userSpaceOnUse">
      <stop offset="0%" stop-color="#081230"/>
      <stop offset="50%" stop-color="#0c1a3d"/>
      <stop offset="100%" stop-color="#0a1535"/>
    </linearGradient>
    <linearGradient id="glow" x1="800" y1="100" x2="900" y2="400" gradientUnits="userSpaceOnUse">
      <stop offset="0%" stop-color="#4772FA" stop-opacity="0.28"/>
      <stop offset="100%" stop-color="#4772FA" stop-opacity="0"/>
    </linearGradient>
    <linearGradient id="accent" x1="0" y1="0" x2="1" y2="1">
      <stop offset="0%" stop-color="#FFB000"/>
      <stop offset="100%" stop-color="#FFC940"/>
    </linearGradient>
  </defs>

  <!-- Background -->
  <rect width="1280" height="640" fill="url(#bg)"/>
  <circle cx="900" cy="200" r="500" fill="url(#glow)"/>

  <!-- Grid pattern -->
  <g opacity="0.05" stroke="#4772FA" stroke-width="1">
    <line x1="0" y1="80" x2="1280" y2="80"/><line x1="0" y1="160" x2="1280" y2="160"/>
    <line x1="0" y1="240" x2="1280" y2="240"/><line x1="0" y1="320" x2="1280" y2="320"/>
    <line x1="0" y1="400" x2="1280" y2="400"/><line x1="0" y1="480" x2="1280" y2="480"/>
    <line x1="0" y1="560" x2="1280" y2="560"/>
    <line x1="160" y1="0" x2="160" y2="640"/><line x1="320" y1="0" x2="320" y2="640"/>
    <line x1="480" y1="0" x2="480" y2="640"/><line x1="640" y1="0" x2="640" y2="640"/>
    <line x1="800" y1="0" x2="800" y2="640"/><line x1="960" y1="0" x2="960" y2="640"/>
    <line x1="1120" y1="0" x2="1120" y2="640"/>
  </g>

  <!-- Left: Dida365-style logo icon -->
  <g transform="translate(80, 155) scale(0.55)">
    <rect width="512" height="512" rx="108" fill="#4772FA" opacity="0.12"/>
    <!-- Circle arc (official Dida365 blue) -->
    <circle cx="256" cy="256" r="175" stroke="#4772FA" stroke-width="40" fill="none" opacity="0.85"/>
    <!-- Checkmark (official Dida365 gold) -->
    <path d="M185 260 L145 320 L230 400 C240 410, 255 415, 268 415 C275 415, 282 414, 288 412 C338 392, 380 352, 400 300 L375 275 L265 390 L225 340 Z" fill="url(#accent)"/>
  </g>

  <!-- Title -->
  <text x="220" y="230" font-family="Inter, system-ui, -apple-system, sans-serif" font-weight="800" font-size="96" fill="white" letter-spacing="-2">DidaCLI</text>

  <!-- Tagline -->
  <text x="222" y="280" font-family="Inter, system-ui, -apple-system, sans-serif" font-weight="400" font-size="22" fill="#8fa8d8">A clean, agent-friendly CLI for Dida365 / TickTick</text>

  <!-- Badges row -->
  <g transform="translate(222, 300)">
    <rect x="0" y="0" width="64" height="24" rx="4" fill="#4772FA"/>
    <text x="32" y="16" font-family="system-ui, sans-serif" font-size="11" fill="white" text-anchor="middle" font-weight="600">Go</text>
    <rect x="72" y="0" width="32" height="24" rx="4" fill="#FFB000"/>
    <text x="88" y="16" font-family="system-ui, sans-serif" font-size="11" fill="#0a1535" text-anchor="middle" font-weight="600">CI</text>
    <rect x="112" y="0" width="60" height="24" rx="4" fill="#1e2a4a"/>
    <text x="142" y="16" font-family="system-ui, sans-serif" font-size="11" fill="#8fa8d8" text-anchor="middle" font-weight="600">MIT</text>
  </g>

  <!-- Terminal window on the right -->
  <g transform="translate(620, 100)">
    <rect width="580" height="440" rx="12" fill="#0c1425" stroke="#1c2844" stroke-width="1"/>
    <!-- Title bar -->
    <rect width="580" height="42" rx="12" fill="#111d33"/>
    <rect y="12" width="580" height="30" fill="#111d33"/>
    <circle cx="22" cy="21" r="6" fill="#4772FA"/>
    <circle cx="42" cy="21" r="6" fill="#FFB000"/>
    <circle cx="62" cy="21" r="6" fill="#e06050"/>
    <text x="290" y="26" font-family="monospace" font-size="13" fill="#5a6680" text-anchor="middle">zsh</text>

    <!-- Terminal content -->
    <text x="24" y="76" font-family="Consolas, SFMono-Regular, monospace" font-size="15" fill="#4772FA">$ <tspan fill="#c8d8f8">dida +today --json</tspan></text>
    <text x="24" y="106" font-family="Consolas, monospace" font-size="14" fill="#c8d8f8">{</text>
    <text x="44" y="126" font-family="Consolas, monospace" font-size="14" fill="#8fa8d8">"ok"</text><text x="80" y="126" font-family="Consolas, monospace" font-size="14" fill="#c8d8f8">: </text><text x="96" y="126" font-family="Consolas, monospace" font-size="14" fill="#FFB000">true,</text>
    <text x="44" y="146" font-family="Consolas, monospace" font-size="14" fill="#8fa8d8">"command"</text><text x="140" y="146" font-family="Consolas, monospace" font-size="14" fill="#c8d8f8">: </text><text x="156" y="146" font-family="Consolas, monospace" font-size="14" fill="#FFB000">"task today",</text>
    <text x="44" y="166" font-family="Consolas, monospace" font-size="14" fill="#8fa8d8">"meta"</text><text x="100" y="166" font-family="Consolas, monospace" font-size="14" fill="#c8d8f8">: { </text><text x="132" y="166" font-family="Consolas, monospace" font-size="14" fill="#8fa8d8">"count"</text><text x="192" y="166" font-family="Consolas, monospace" font-size="14" fill="#c8d8f8">: </text><text x="208" y="166" font-family="Consolas, monospace" font-size="14" fill="#FFB000">3 },</text>
    <text x="44" y="186" font-family="Consolas, monospace" font-size="14" fill="#8fa8d8">"data"</text><text x="100" y="186" font-family="Consolas, monospace" font-size="14" fill="#c8d8f8">: { </text><text x="132" y="186" font-family="Consolas, monospace" font-size="14" fill="#8fa8d8">"tasks"</text><text x="192" y="186" font-family="Consolas, monospace" font-size="14" fill="#c8d8f8">: [</text>
    <text x="64" y="206" font-family="Consolas, monospace" font-size="14" fill="#5a6680">  ...3 tasks</text>
    <text x="44" y="226" font-family="Consolas, monospace" font-size="14" fill="#c8d8f8">  ]</text>
    <text x="24" y="246" font-family="Consolas, monospace" font-size="14" fill="#c8d8f8">}</text>

    <!-- Second command -->
    <text x="24" y="286" font-family="Consolas, monospace" font-size="15" fill="#4772FA">$ <tspan fill="#c8d8f8">dida task create --project work \</tspan></text>
    <text x="24" y="306" font-family="Consolas, monospace" font-size="15" fill="#c8d8f8">    --title "Review PR #42" --dry-run --json</text>
    <text x="24" y="336" font-family="Consolas, monospace" font-size="14" fill="#c8d8f8">{</text>
    <text x="44" y="356" font-family="Consolas, monospace" font-size="14" fill="#8fa8d8">"ok"</text><text x="80" y="356" font-family="Consolas, monospace" font-size="14" fill="#c8d8f8">: </text><text x="96" y="356" font-family="Consolas, monospace" font-size="14" fill="#FFB000">true,</text>
    <text x="44" y="376" font-family="Consolas, monospace" font-size="14" fill="#8fa8d8">"dry_run"</text><text x="132" y="376" font-family="Consolas, monospace" font-size="14" fill="#c8d8f8">: </text><text x="148" y="376" font-family="Consolas, monospace" font-size="14" fill="#FFB000">true</text>
    <text x="24" y="396" font-family="Consolas, monospace" font-size="14" fill="#c8d8f8">}</text>

    <!-- Blinking cursor -->
    <rect x="24" y="412" width="10" height="18" fill="#4772FA" opacity="0.85"/>
  </g>

  <!-- Feature pills at bottom -->
  <g transform="translate(80, 480)">
    <rect x="0" y="0" width="160" height="36" rx="18" fill="none" stroke="#1c2844" stroke-width="1"/>
    <text x="80" y="23" font-family="system-ui, sans-serif" font-size="13" fill="#4772FA" text-anchor="middle">30+ Commands</text>

    <rect x="176" y="0" width="120" height="36" rx="18" fill="none" stroke="#1c2844" stroke-width="1"/>
    <text x="236" y="23" font-family="system-ui, sans-serif" font-size="13" fill="#4772FA" text-anchor="middle">Agent-safe</text>

    <rect x="312" y="0" width="140" height="36" rx="18" fill="none" stroke="#1c2844" stroke-width="1"/>
    <text x="382" y="23" font-family="system-ui, sans-serif" font-size="13" fill="#4772FA" text-anchor="middle">Three Channels</text>

    <rect x="468" y="0" width="100" height="36" rx="18" fill="none" stroke="#1c2844" stroke-width="1"/>
    <text x="518" y="23" font-family="system-ui, sans-serif" font-size="13" fill="#4772FA" text-anchor="middle">Zero Deps</text>
  </g>

  <!-- Version badge bottom right -->
  <text x="1200" y="610" font-family="system-ui, sans-serif" font-size="13" fill="#5a6680" text-anchor="end">v0.2.0</text>
</svg>
