<?xml version="1.0" encoding="UTF-8"?>
<svg xmlns="http://www.w3.org/2000/svg" viewBox="-10 490 760 180" fill="none">
  <path d="M88.394,523.634c30.734,18.285,38.635,60.416,22.507,91.132-10.347,19.705-30.419,32.532-52.684,32.654l-58.174.319-.043-132.56,57.622.126c11.073.024,21.081,3.665,30.772,8.328ZM96.558,586.664c1.08-13.141-1.609-24.871-9.315-34.967-7.861-9.717-19.764-15.79-32.528-15.739l-32.944.132-.002,91.147,35.378-.336c21.718-.206,37.618-18.417,39.412-40.237Z" fill="#3164f8"/>
  <path d="M266.406,645.704c-23.653,10.141-50.537.127-62.107-22.872-7.353-14.617-7.718-31.413-1.256-46.377,9.053-20.964,30.456-32.347,52.876-28.27,9.489,1.725,17.443,5.882,24.536,13.617l.379-53.51,21.313-.049.012,139.18-21.018.263-.811-12.659c-4.569,3.895-8.342,8.283-13.924,10.677ZM280.88,598.227c0-16.879-13.683-30.562-30.562-30.562s-30.562,13.683-30.562,30.562,13.683,30.562,30.562,30.562,30.562-13.683,30.562-30.562Z" fill="#3164f8"/>
  <path d="M470.439,585.593c2.525,28.703,27.781,47.62,55.132,42.02,11.439-2.342,20.617-8.33,27.48-18.34l16.504,13.752c-12.922,18.291-33.037,26.682-54.879,26.404-36.706-.467-65.58-29.531-66.681-66.041-1.214-40.248,30.536-71.8,70.875-70.414,19.927.685,38.346,9.611,50.403,26.704l-16.111,13.196c-12.981-17.334-35.247-23.431-55.502-14.642-18.098,7.852-28.993,27.204-27.22,47.361Z" fill="#faaf09"/>
  <path d="M395.297,635.948c-11.723,15.895-37.305,17.484-51.803,7.537-10.412-7.144-15.16-18.505-13.224-30.958,4.215-27.116,40.972-30.711,64-23.567,1.531-9.179-3.205-17.759-12.434-20.075-13.345-3.349-26.935-.229-37.586,9.608l-10.54-16.82c15.887-13.408,36.918-17.439,56.572-11.746,15.305,4.433,25.664,17.594,25.696,33.646l.126,64.046h-20.393s-.414-11.671-.414-11.671ZM392.258,618.912c2.511-3.946,2.633-8.668,2.373-13.277-11.207-3.227-39.517-5.789-42.532,8.731-1.049,5.054.108,10.232,4.726,13.008,11.941,7.179,27.914,3.352,35.433-8.462Z" fill="#3164f8"/>
  <polygon points="678.009 626.944 678.167 647.611 597.009 647.742 597.08 515.17 618.183 515.34 618.193 626.892 678.009 626.944" fill="#faaf09"/>
  <rect x="650.738" y="570.707" width="132.567" height="21.392" transform="translate(135.575 1298.39) rotate(-89.997)" fill="#faaf09"/>
  <rect x="110.234" y="588.421" width="97.621" height="21.085" transform="translate(-439.951 757.887) rotate(-89.988)" fill="#3164f8"/>
  <circle cx="159.398" cy="525.829" r="13.369" fill="#3164f8"/>
</svg>
