<?xml version="1.0" encoding="UTF-8"?>
<svg xmlns="http://www.w3.org/2000/svg" viewBox="52 -82 620 620" fill="none">
  <path d="M176.483,414.386l353.023.187c19.937.011,33.665-17.606,33.688-36.215l.111-91.919c.013-10.867,9.187-18.879,18.962-19.042,10.255-.171,20.421,7.47,20.392,18.975l-.244,99.375c-.107,43.5-36.677,70.77-77.882,70.755l-343.804-.124c-39.552-.014-76.562-28.211-76.561-70.456l.006-317.531c0-36.533,33.02-68.057,69.031-68.087L538.099,0c19.542-.016,37.53,10.024,49.456,24.186,10.924,12.973,15.752,29.424,15.068,45.987-.435,10.541-8.226,18.161-17.551,19.166-9.072.978-20.341-4.122-21.317-14.904-1.547-17.071-13.952-33.382-33.346-33.379l-353.511.066c-18.769.003-32.996,16.531-32.992,34.347l.057,304.1c.003,17.476,13.455,34.807,32.52,34.817Z" fill="#3164f8"/>
  <path d="M454.246,303.082l-64.973-73.213c-7.819-8.811-4.327-22.633,4.769-28.887,8.162-4.709,17.385-4.3,24.925,1.146l49.916,51.581,141.775-152.254c4.138-4.444,11.782-1.931,15.42,1.252l18.093,17.113c2.457,2.324,3.293,8.667.433,11.704l-162.579,172.646c-8.97,5.526-19.042,5.239-27.78-1.088Z" fill="#faaf09"/>
  <polygon points="206.262 285.571 205.573 251.074 263.407 213.697 205.255 174.937 205.567 140.468 298.242 200.889 298.168 226.618 206.262 285.571" fill="#3164f8"/>
  <rect x="297.808" y="274.365" width="75.019" height="25.816" fill="#3164f8"/>
</svg>
